<svg width="99" height="48" viewBox="0 0 99 48" fill="none" xmlns="http://www.w3.org/2000/svg">
<path d="M1.592 47C0.994667 47 0.696 46.7867 0.696 46.36C0.696 45.8907 1.12267 45.592 1.976 45.464L3.256 45.272C4.19467 45.144 4.83467 44.9307 5.176 44.632C5.51733 44.2907 5.79467 43.672 6.008 42.776L14.712 5.144C14.9253 4.29066 14.9253 3.71466 14.712 3.416C14.4987 3.07467 13.9653 2.81867 13.112 2.648L11.832 2.392C11.2773 2.264 11 2.02933 11 1.688C11 1.176 11.384 0.919998 12.152 0.919998H24.376C27.2347 0.919998 29.56 1.70933 31.352 3.288C33.144 4.86666 34.04 6.91467 34.04 9.432C34.04 11.8213 33.1867 14.0827 31.48 16.216C29.7733 18.3493 27.4907 19.9067 24.632 20.888C24.4187 20.9307 24.312 21.0373 24.312 21.208C24.312 21.336 24.4187 21.4427 24.632 21.528C26.8507 22.3387 28.536 23.64 29.688 25.432C30.84 27.224 31.416 29.3147 31.416 31.704C31.416 34.52 30.6693 37.1013 29.176 39.448C27.6827 41.752 25.656 43.5867 23.096 44.952C20.5787 46.3173 17.7627 47 14.648 47H1.592ZM19.128 20.696C21.0053 20.696 22.712 20.2053 24.248 19.224C25.8267 18.2427 27.0853 16.92 28.024 15.256C28.9627 13.5493 29.432 11.6933 29.432 9.688C29.432 7.42666 28.856 5.67733 27.704 4.44C26.5947 3.16 25.0373 2.52 23.032 2.52C20.8133 2.52 19.512 3.37333 19.128 5.08L16.376 17.176C16.0773 18.456 16.1413 19.3733 16.568 19.928C16.9947 20.44 17.848 20.696 19.128 20.696ZM14.84 45.4C17.1013 45.4 19.128 44.8027 20.92 43.608C22.712 42.3707 24.12 40.6853 25.144 38.552C26.2107 36.4187 26.744 34.0293 26.744 31.384C26.744 28.4827 26.0613 26.2427 24.696 24.664C23.3733 23.0853 21.496 22.296 19.064 22.296C16.4187 22.296 14.8613 23.4267 14.392 25.688L10.872 40.984C10.1893 43.928 11.512 45.4 14.84 45.4ZM43.481 47.576C40.8357 47.576 38.745 46.488 37.209 44.312C35.673 42.0933 34.905 39.1067 34.905 35.352C34.905 32.5787 35.353 29.912 36.249 27.352C37.145 24.792 38.3183 22.5093 39.769 20.504C41.2623 18.4987 42.905 16.92 44.697 15.768C46.5317 14.5733 48.3663 13.976 50.201 13.976C52.8463 13.976 54.937 15.064 56.473 17.24C58.009 19.416 58.777 22.4027 58.777 26.2C58.777 28.9733 58.329 31.64 57.433 34.2C56.537 36.76 55.3423 39.0427 53.849 41.048C52.3983 43.0533 50.7557 44.6533 48.921 45.848C47.129 47 45.3157 47.576 43.481 47.576ZM43.353 46.04C44.7183 46.04 46.041 45.3787 47.321 44.056C48.6437 42.7333 49.8383 40.984 50.905 38.808C51.9717 36.632 52.825 34.2213 53.465 31.576C54.105 28.888 54.425 26.2 54.425 23.512C54.425 18.1787 53.0383 15.512 50.265 15.512C48.9423 15.512 47.6197 16.1733 46.297 17.496C44.9743 18.776 43.7797 20.504 42.713 22.68C41.689 24.856 40.857 27.288 40.217 29.976C39.577 32.6213 39.257 35.288 39.257 37.976C39.257 43.352 40.6223 46.04 43.353 46.04ZM68.893 47.576C67.1437 47.576 65.7997 46.8933 64.861 45.528C63.9223 44.1627 63.7517 42.3067 64.349 39.96L69.469 20.632C70.0237 18.6267 69.6823 17.624 68.445 17.624C67.549 17.624 66.653 18.264 65.757 19.544C64.9037 20.824 63.965 22.9147 62.941 25.816C62.7703 26.328 62.4717 26.584 62.045 26.584C61.8317 26.584 61.661 26.4987 61.533 26.328C61.405 26.1147 61.3837 25.8587 61.469 25.56C63.9437 17.8373 67.037 13.976 70.749 13.976C72.1997 13.976 73.181 14.5733 73.693 15.768C74.205 16.9627 74.1837 18.6053 73.629 20.696L68.253 41.112C67.869 42.5627 67.8477 43.6293 68.189 44.312C68.5303 44.9947 69.0423 45.336 69.725 45.336C71.8157 45.336 74.141 42.776 76.701 37.656C79.3037 32.4933 81.5863 24.9627 83.549 15.064C83.677 14.5947 83.9757 14.36 84.445 14.36H86.941C87.5383 14.36 87.773 14.6373 87.645 15.192L82.525 41.112C82.2263 42.52 82.2477 43.5867 82.589 44.312C82.973 44.9947 83.5703 45.336 84.381 45.336C85.6183 45.336 86.877 44.7387 88.157 43.544C89.437 42.3493 90.589 40.792 91.613 38.872C92.6797 36.952 93.533 34.84 94.173 32.536C94.813 30.232 95.133 27.9707 95.133 25.752C95.133 23.96 94.9837 22.552 94.685 21.528C94.429 20.4613 94.1517 19.5653 93.853 18.84C93.5543 18.1147 93.405 17.3253 93.405 16.472C93.405 14.808 94.1303 13.976 95.581 13.976C96.605 13.976 97.2663 14.552 97.565 15.704C97.8637 16.8133 98.013 18.4987 98.013 20.76C98.013 24.0027 97.6077 27.224 96.797 30.424C96.029 33.5813 94.9623 36.4613 93.597 39.064C92.2743 41.624 90.7383 43.6933 88.989 45.272C87.2823 46.808 85.469 47.576 83.549 47.576C81.7143 47.576 80.3063 46.872 79.325 45.464C78.3437 44.0133 78.1303 41.9227 78.685 39.192C78.7703 38.8933 78.7063 38.7227 78.493 38.68C78.3223 38.6373 78.173 38.744 78.045 39C76.8503 41.3893 75.5063 43.416 74.013 45.08C72.5197 46.744 70.813 47.576 68.893 47.576Z" fill="black"/>
</svg>
